Coordinates
version=1
nRows=26
nColumns=24
inDegrees=yes

Units are S.I. units (second, meters, Newtons, ...)
Angles are in degrees.

endheader
time	pelvis_tilt	pelvis_list	pelvis_rotation	pelvis_tx	pelvis_ty	pelvis_tz	hip_flexion_r	hip_adduction_r	hip_rotation_r	knee_angle_r	ankle_angle_r	subtalar_angle_r	mtp_angle_r	hip_flexion_l	hip_adduction_l	hip_rotation_l	knee_angle_l	ankle_angle_l	subtalar_angle_l	mtp_angle_l	lumbar_extension	lumbar_bending	lumbar_rotation
      1.37000000	     -9.78072508	     -3.35058954	     -0.20532724	     -0.55243478	      1.22115204	     -0.85787859	     -1.97818950	     10.89619195	      5.26380206	    -10.83251393	      9.68711478	     -5.07878892	      7.38483272	     34.01464264	      3.68656034	      8.24677659	     -9.30304914	     -0.50709912	     -6.16073766	      9.67497563	     -3.99323583	      3.69522034	      5.52889146
      1.37500000	     -9.78619883	     -3.42515990	     -0.30552864	     -0.54668107	      1.22061714	     -0.85786672	     -2.08659052	     10.98144636	      5.37880402	    -11.45675219	      9.70275541	     -5.06256660	      7.70233364	     34.06148494	      3.66059553	      8.27337573	     -9.67567020	     -1.03693011	     -6.28247875	      9.41639511	     -3.94292271	      3.65833290	      5.49143289
      1.38000000	     -9.75553191	     -3.48265336	     -0.34648287	     -0.54082853	      1.22014854	     -0.85793897	     -2.21758707	     11.03146036	      5.33344447	    -12.10406212	      9.72994928	     -4.86983328	      8.29610688	     34.10512467	      3.69665039	      8.31479554	    -10.20323232	     -1.65817729	     -6.47764668	      9.33072083	     -3.91368102	      3.59891242	      5.37206680
      1.38500000	     -9.73555387	     -3.50625181	     -0.42940693	     -0.53495154	      1.21974492	     -0.85790432	     -2.26699978	     11.05512939	      5.35579551	    -12.88302618	      9.75603414	     -4.68169803	      8.75941548	     34.15739247	      3.72987066	      8.28274644	    -10.80225570	     -2.34079390	     -6.60019469	      9.29019088	     -3.87026872	      3.48677856	      5.31178355
      1.39000000	     -9.68747926	     -3.51839849	     -0.46523441	     -0.52904016	      1.21940709	     -0.85796253	     -2.29822633	     11.05225569	      5.24113319	    -13.73443600	      9.78189352	     -4.39189188	      9.44122927	     34.20288064	      3.81212521	      8.32295956	    -11.50900128	     -3.11819483	     -6.84535835	      9.22606290	     -3.85757108	      3.36656157	      5.19558392
      1.39500000	     -9.57748879	     -3.51464920	     -0.46202781	     -0.52308080	      1.21917786	     -0.85805611	     -2.36902293	     11.02164577	      5.02763068	    -14.62161236	      9.78432315	     -4.01979707	     10.27998959	     34.19719240	      3.93235393	      8.38676262	    -12.30350521	     -3.92658222	     -7.17161202	      9.17673266	     -3.90214630	      3.21524471	      5.05879352
      1.40000000	     -9.51374357	     -3.47199544	     -0.50587793	     -0.51709495	      1.21900965	     -0.85804511	     -2.28550494	     10.96022142	      4.85924361	    -15.69486287	      9.74771501	     -3.69779732	     10.99608562	     34.22399320	      4.04459033	      8.37547050	    -13.11380246	     -4.73632481	     -7.34045958	      9.09312376	     -3.89637018	      3.01613339	      4.96594026
      1.40500000	     -9.36382482	     -3.43070953	     -0.46625890	     -0.51106982	      1.21894830	     -0.85816910	     -2.27055445	     10.87297185	      4.47697093	    -16.78444267	      9.70527318	     -3.20667065	     12.03564104	     34.19067698	      4.21286976	      8.44725518	    -14.02735595	     -5.52618900	     -7.63487639	      8.97776078	     -3.97722021	      2.81101199	      4.81660768
      1.41000000	     -9.23369399	     -3.35543464	     -0.45538802	     -0.50501639	      1.21897079	     -0.85825170	     -2.13826214	     10.74714287	      4.10103147	    -18.03706677	      9.59958427	     -2.75281953	     13.03413569	     34.15506576	      4.38334591	      8.47014372	    -14.93462743	     -6.26787386	     -7.80500283	      8.85497923	     -4.03917770	      2.57584924	      4.68981842
      1.41500000	     -9.05983843	     -3.26430990	     -0.40834869	     -0.49892694	      1.21909230	     -0.85836833	     -1.99046610	     10.58540064	      3.59519845	    -19.38021684	      9.44863663	     -2.22102181	     14.18870538	     34.06760722	      4.58434022	      8.50676616	    -15.86691974	     -6.92952217	     -7.96176605	      8.69867197	     -4.14284210	      2.31176250	      4.54224776
      1.42000000	     -8.88524400	     -3.15413346	     -0.35614966	     -0.49280263	      1.21928709	     -0.85848649	     -1.76616447	     10.38818328	      3.02510612	    -20.84362743	      9.24190022	     -1.67397638	     15.40308870	     33.96094310	      4.79867026	      8.53524751	    -16.79389269	     -7.49800276	     -8.05968289	      8.54043872	     -4.24001859	      2.02402780	      4.40325972
      1.42500000	     -8.68481601	     -3.02419472	     -0.28514815	     -0.48664646	      1.21957835	     -0.85864962	     -1.49857960	     10.14307216	      2.36700137	    -22.41247724	      8.95425527	     -1.09814227	     16.71247998	     33.79597219	      5.03826753	      8.56676809	    -17.69301428	     -7.95947759	     -8.11801370	      8.37481747	     -4.36518939	      1.72210815	      4.25084575
      1.43000000	     -8.46950333	     -2.87210826	     -0.20180179	     -0.48046597	      1.21993747	     -0.85883618	     -1.17710338	      9.84913392	      1.64785872	    -24.08415364	      8.57708354	     -0.52569296	     18.06700048	     33.58293419	      5.30158197	      8.59356344	    -18.55783714	     -8.30326802	     -8.13491786	      8.21407093	     -4.50198867	      1.40109560	      4.10278610
      1.43500000	     -8.24568904	     -2.69486987	     -0.10704130	     -0.47427217	      1.22035951	     -0.85904769	     -0.79467337	      9.49720316	      0.87138991	    -25.85420141	      8.08641556	      0.03709099	     19.47404170	     33.32238926	      5.59201735	      8.62165936	    -19.37233025	     -8.53556883	     -8.12915794	      8.06589502	     -4.64836044	      1.05250740	      3.95087010
      1.44000000	     -8.02297762	     -2.49463396	     -0.00265466	     -0.46806455	      1.22082077	     -0.85927762	     -0.34861974	      9.08893947	      0.05334355	    -27.70449811	      7.48143201	      0.57844570	     20.91417321	     33.01325285	      5.90682212	      8.65644732	    -20.11270152	     -8.66567107	     -8.10885516	      7.92763893	     -4.78628605	      0.68346428	      3.80069384
      1.44500000	     -7.80275577	     -2.26565370	      0.10526885	     -0.46185269	      1.22132062	     -0.85953462	      0.15257822	      8.61913019	     -0.76622817	    -29.61260183	      6.72627149	      1.05483516	     22.34166933	     32.65798705	      6.25127757	      8.69108399	    -20.78121955	     -8.70017904	     -8.08256855	      7.81019318	     -4.92132013	      0.29951464	      3.66072897
      1.45000000	     -7.59913071	     -2.01048534	      0.22387000	     -0.45564902	      1.22183075	     -0.85979984	      0.72141331	      8.09109916	     -1.59533746	    -31.56894909	      5.83043337	      1.46729850	     23.69135400	     32.26671478	      6.62440524	      8.73718328	    -21.36027712	     -8.66065691	     -8.05065787	      7.71845298	     -5.03695134	     -0.11550680	      3.51542665
      1.45500000	     -7.40811989	     -1.73546928	      0.35794895	     -0.44945387	      1.22233844	     -0.86008673	      1.33863778	      7.51590732	     -2.41085773	    -33.54252797	      4.79322369	      1.79566574	     24.92990893	     31.84331486	      7.02311369	      8.77929373	    -21.86337417	     -8.53669325	     -8.03593847	      7.65298745	     -5.13823661	     -0.54448779	      3.37561124
      1.46000000	     -7.22692382	     -1.44184145	      0.49143047	     -0.44327050	      1.22286907	     -0.86037130	      1.98824918	      6.90053990	     -3.17851322	    -35.50029067	      3.60236462	      2.01785188	     26.04137421	     31.37349667	      7.43584983	      8.82960989	    -22.27310303	     -8.35242634	     -8.02031950	      7.60101092	     -5.22579571	     -0.98731936	      3.23997345
      1.46500000	     -7.03970297	     -1.13761130	      0.61582161	     -0.43711285	      1.22345599	     -0.86063058	      2.64091211	      6.26576967	     -3.86110552	    -37.40907458	      2.27342922	      2.13205698	     27.05693192	     30.83397207	      7.84485729	      8.86600325	    -22.57345384	     -8.12383529	     -8.00940445	      7.55254303	     -5.32263048	     -1.43846057	      3.12949349
      1.47000000	     -6.86808544	     -0.82485323	      0.75779786	     -0.43099079	      1.22403380	     -0.86090340	      3.32527312	      5.60970745	     -4.51796609	    -39.29415219	      0.83007626	      2.16161340	     27.44654948	     30.27112357	      8.26526130	      8.91594957	    -22.79865313	     -7.84094637	     -7.94954921	      7.61010457	     -5.40743074	     -1.89284341	      3.00700982
      1.47500000	     -6.73716050	     -0.51535227	      0.90743014	     -0.42488220	      1.22457680	     -0.86120347	      4.06683306	      4.94248867	     -5.13201247	    -41.13783679	     -0.57732538	      2.14590563	     27.79863323	     29.71880549	      8.68745275	      8.97802378	    -22.96729402	     -7.50957702	     -7.92644053	      7.64834409	     -5.44328213	     -2.33378512	      2.87561024
      1.48000000	     -6.65630149	     -0.21725635	      1.06679323	     -0.41883353	      1.22507701	     -0.86151344	      4.87511905	      4.29186843	     -5.67491751	    -42.93134552	     -1.95330958	      1.98870737	     27.99016955	     29.20435199	      9.10477848	      9.06573837	    -23.10373367	     -7.14625149	     -7.93506070	      7.65841974	     -5.43710596	     -2.75943205	      2.73164405
      1.48500000	     -6.58694130	      0.06478317	      1.22027031	     -0.41283794	      1.22560722	     -0.86180256	      5.69532029	      3.67479339	     -6.13373337	    -44.64719604	     -3.30755690	      1.69807705	     27.80722256	     28.66158108	      9.49201729	      9.15031624	    -23.16223591	     -6.76920030	     -7.91186700	      7.67720418	     -5.42319791	     -3.16542618	      2.59533049
      1.49000000	     -6.52481129	      0.32646175	      1.36884437	     -0.40689876	      1.22615833	     -0.86207128	      6.51721649	      3.09979144	     -6.51530109	    -46.27947021	     -4.62393409	      1.31711562	     27.10559625	     28.09932635	      9.84606790	      9.22804769	    -23.16681960	     -6.35519506	     -7.84886909	      7.71805719	     -5.40843427	     -3.54543359	      2.48491237
      1.49500000	     -6.47192620	      0.57865319	      1.51688251	     -0.40100774	      1.22672526	     -0.86233183	      7.34810110	      2.54922934	     -6.83986795	    -47.83638229	     -5.74152767	      0.88439789	     26.27650235	     27.51632127	     10.17979339	      9.29355254	    -23.10956692	     -5.93781514	     -7.75676047	      7.78029671	     -5.39125832	     -3.90706440	      2.33389570
